<?xml version="1.0" standalone="no"?>
<!DOCTYPE svg PUBLIC "-//W3C//DTD SVG 20010904//EN"
 "http://www.w3.org/TR/2001/REC-SVG-20010904/DTD/svg10.dtd">
<svg version="1.0" xmlns="http://www.w3.org/2000/svg"
 width="500.000000pt" height="500.000000pt" viewBox="0 0 500.000000 500.000000"
 preserveAspectRatio="xMidYMid meet">

<g transform="translate(0.000000,500.000000) scale(0.100000,-0.100000)"
fill="#000000" stroke="none">
<path d="M0 2500 l0 -2500 2500 0 2500 0 0 2500 0 2500 -2500 0 -2500 0 0
-2500z m3880 1352 c130 -29 230 -80 306 -156 115 -115 156 -238 158 -471 1
-228 -35 -342 -145 -459 -92 -99 -217 -154 -399 -176 -46 -5 -277 -10 -513
-10 l-429 0 4 -222 c3 -216 4 -225 29 -279 28 -60 58 -86 141 -124 l53 -24
-282 0 -281 -1 -5 -372 c-4 -410 -7 -428 -70 -558 -64 -131 -211 -240 -387
-287 -80 -22 -411 -24 -530 -4 -96 16 -214 47 -251 66 l-29 16 0 251 0 252 37
-37 c79 -82 174 -117 319 -117 114 0 174 19 229 74 77 78 75 55 75 851 0 707
-4 814 -36 893 -29 70 -102 130 -203 167 -31 12 17 14 332 14 l369 1 -4 268
c-3 249 -5 270 -25 314 -27 60 -64 94 -130 124 -29 13 -53 26 -53 30 0 3 366
4 813 1 782 -4 816 -5 907 -25z"/>
<path d="M2860 3225 l0 -285 358 0 c368 0 446 6 513 40 90 47 136 149 125 280
-7 89 -35 150 -87 192 -66 53 -106 58 -526 58 l-383 0 0 -285z"/>
</g>
</svg>
